<?xml version="1.0" encoding="UTF-8"?>
<svg id="Layer_2" data-name="Layer 2" xmlns="http://www.w3.org/2000/svg" width="613.51" height="184.31" viewBox="0 0 613.51 184.31">
  <g id="Layer_1-2" data-name="Layer 1">
    <path d="M372.66,118.63c-4.86,0-8.9-1.73-12.37-5.09-3.35-3.35-5.09-7.52-5.09-12.26v-39.66c0-4.86,1.73-8.9,5.09-12.37,3.35-3.35,7.52-5.09,12.26-5.09s8.9,1.73,12.26,5.09,5.09,7.52,5.09,12.26v8.33h-11.33v-8.56c0-1.73-.58-3.24-1.85-4.51s-2.78-1.85-4.51-1.85-3.24.58-4.39,1.85c-1.27,1.27-1.85,2.78-1.85,4.51v39.78c0,1.73.58,3.24,1.85,4.39,1.27,1.27,2.66,1.85,4.39,1.85s3.24-.58,4.51-1.85,1.85-2.66,1.85-4.39v-14.22h-6.13v-10.98h17.46v25.44c0,4.86-1.73,8.9-5.09,12.26-3.35,3.35-7.52,5.09-12.26,5.09h.12Z" style="fill: #44b2e5;"/>
    <path d="M399.49,117.71V44.98h31.22v10.98h-20.23v19.77h14.8v10.98h-14.8v19.77h20.23v10.98h-31.22v.23Z" style="fill: #44b2e5;"/>
    <path d="M450.48,44.98l14.57,48.91v-48.91h10.98v72.73h-11.79l-15.03-46.6v46.6h-10.98V44.98s12.26,0,12.26,0Z" style="fill: #44b2e5;"/>
    <path d="M496.73,117.71h-10.98V45.09h10.98v72.61Z" style="fill: #44b2e5;"/>
    <path d="M523.78,118.52c-4.86,0-8.9-1.73-12.26-5.09-3.35-3.35-5.09-7.4-5.09-12.26v-56.19h10.75v56.08c0,1.73.58,3.24,1.85,4.39,1.27,1.27,2.78,1.85,4.51,1.85s3.24-.58,4.39-1.85c1.27-1.27,1.85-2.66,1.85-4.39v-56.08h11.45v56.19c0,4.86-1.73,9.02-5.09,12.26-3.35,3.35-7.52,4.97-12.26,4.97l-.12.12Z" style="fill: #44b2e5;"/>
    <path d="M586.45,99.55c0,5.09-1.27,9.37-3.93,12.95-1.73,2.43-4.28,4.16-7.52,5.2-1.73.58-3.82.81-6.13.81-4.28,0-7.86-1.04-10.64-3.24-2.31-1.73-4.28-4.16-5.55-7.05-1.39-3.01-2.2-6.48-2.43-10.29l10.41-.81c.46,4.28,1.62,7.28,3.35,9.25,1.27,1.39,2.78,2.08,4.51,2.08,2.43,0,4.28-1.27,5.78-3.58.69-1.16,1.16-2.78,1.16-4.86,0-3.01-1.39-6.01-4.16-9.02-2.2-2.08-5.43-5.09-9.71-9.25-3.58-3.47-6.24-6.71-7.75-9.48-1.62-3.12-2.43-6.59-2.43-10.18,0-6.59,2.2-11.68,6.71-15.03,2.78-2.08,6.13-3.12,10.18-3.12s7.28.93,10.06,2.66c2.2,1.39,3.93,3.24,5.2,5.67,1.39,2.43,2.08,5.2,2.43,8.44l-10.52,1.97c-.35-3.01-1.16-5.32-2.54-6.94-1.04-1.16-2.43-1.85-4.39-1.85s-3.58.93-4.63,2.66c-.81,1.39-1.27,3.24-1.27,5.32,0,3.35,1.39,6.71,4.28,10.18,1.04,1.27,2.66,2.89,4.86,4.63,2.54,2.08,4.28,3.58,5.09,4.51,2.66,2.66,4.74,5.32,6.24,7.98.69,1.27,1.27,2.43,1.73,3.47,1.04,2.54,1.62,4.86,1.62,6.94h0Z" style="fill: #44b2e5;"/>
    <path d="M170.09,86.95v30.76h-10.98V45.09h10.98v30.87h13.18v-30.87h10.98v72.61h-10.98v-30.76h-13.18Z" style="fill: #231f20;"/>
    <path d="M221.31,44.05c4.86,0,8.9,1.73,12.37,5.09,3.35,3.35,5.09,7.52,5.09,12.26v39.66c0,4.86-1.73,8.9-5.09,12.37-3.35,3.35-7.52,5.09-12.26,5.09s-8.9-1.73-12.26-5.09c-3.35-3.35-5.09-7.52-5.09-12.26v-39.66c0-4.86,1.73-8.9,5.09-12.37,3.35-3.35,7.52-5.09,12.26-5.09h-.12ZM227.32,61.28c0-1.73-.58-3.24-1.85-4.39-1.27-1.27-2.66-1.85-4.39-1.85s-3.24.58-4.51,1.85c-1.27,1.27-1.85,2.66-1.85,4.39v39.78c0,1.73.58,3.24,1.85,4.39,1.27,1.27,2.78,1.85,4.51,1.85s3.24-.58,4.39-1.85c1.27-1.27,1.85-2.66,1.85-4.39v-39.78Z" style="fill: #231f20;"/>
    <path d="M259.35,117.71h-10.98V44.98h15.73l10.18,52.26,9.83-52.26h15.15v72.73h-10.98v-45.67l-9.48,45.67h-8.79l-10.64-45.56v45.56h0Z" style="fill: #231f20;"/>
    <path d="M308.95,117.71V44.98h31.22v10.98h-20.23v19.77h14.8v10.98h-14.8v19.77h20.23v10.98h-31.22v.23Z" style="fill: #231f20;"/>
    <rect x="106.14" y="126.73" width="11.79" height="43.71" style="fill: #44b2e5;"/>
    <polygon points="106.14 112.16 117.94 112.16 117.94 57.58 117.94 41.63 117.94 8.33 106.14 8.33 106.14 30.76 106.14 46.83 106.14 82.44 56.43 82.44 56.43 47.52 56.43 31.45 56.43 0 44.63 0 44.63 42.32 44.63 58.28 44.63 140.72 56.43 140.72 56.43 94.24 106.14 94.24 106.14 112.16" style="fill: #44b2e5;"/>
    <polygon points="32.14 53.77 23.24 61.86 23.24 61.86 23.24 77.93 23.24 125.34 35.03 125.34 35.03 67.06 43.24 59.66 43.24 43.59 32.14 53.77 32.14 53.77" style="fill: #231f20;"/>
    <polygon points="104.64 45.44 104.64 29.48 86.37 12.72 81.63 8.44 77.01 12.72 57.81 30.18 57.81 46.25 81.63 24.4 104.64 45.44" style="fill: #231f20;"/>
    <polygon points="131.24 53.77 131.24 53.77 119.44 42.9 119.44 58.97 128.34 67.06 128.34 67.06 128.34 113.54 120.6 113.54 117.94 113.54 106.14 113.54 103.6 113.54 67.06 113.54 67.06 125.34 103.6 125.34 106.14 125.34 117.94 125.34 120.6 125.34 130.66 125.34 130.66 125.34 140.14 125.34 140.14 77.93 140.14 61.86 140.14 61.86 131.24 53.77" style="fill: #231f20;"/>
    <polygon points="34.34 143.26 13.07 143.26 13.07 131.24 13.07 59.32 13.07 59.08 13.07 27.17 34.34 27.17 34.34 13.99 0 13.99 0 156.44 95.85 156.44 95.85 143.26 57.93 143.26 34.34 143.26" style="fill: #231f20;"/>
    <path d="M459.27,146.84c-1.04-.93-2.66-1.39-4.86-1.39h-7.28v10.52h6.82c2.43,0,4.28-.46,5.32-1.27,1.04-.93,1.62-2.2,1.62-3.93s-.58-3.01-1.62-3.93h0Z" style="fill: #231f20;"/>
    <path d="M380.64,146.84c-1.04-.93-2.66-1.39-4.86-1.39h-7.28v10.52h6.82c2.43,0,4.28-.46,5.32-1.27,1.04-.93,1.62-2.2,1.62-3.93s-.58-3.01-1.62-3.93h0Z" style="fill: #231f20;"/>
    <path d="M421.46,145.11c-2.54,0-4.51.93-6.01,2.66-1.5,1.73-2.31,4.05-2.31,6.71v5.32c0,2.78.81,4.97,2.31,6.82,1.5,1.73,3.47,2.66,6.01,2.66s4.86-.93,6.36-2.66c1.62-1.73,2.43-4.05,2.43-6.82v-5.32c0-2.78-.81-4.97-2.43-6.71-1.62-1.73-3.7-2.66-6.36-2.66Z" style="fill: #231f20;"/>
    <g>
      <path d="M129.04,13.99v13.18h471.29v116.09h-92.5v-13.18H237.73v13.18h-109.04v13.18h109.04v27.87h270.1v-27.87h105.68V13.99H129.04ZM270.8,172.17h-21.28v-29.95h21.04v3.24h-16.77v9.71h14.68v3.24h-14.68v10.64h17v3.24-.12ZM295.77,172.17l-7.75-11.91-7.75,11.91h-5.2l10.41-15.03-10.18-14.8h5.2l7.4,11.68,7.52-11.68h5.2l-10.18,14.8,10.41,15.03h-5.2.12ZM329.65,145.46h-10.29v26.71h-4.39v-26.71h-10.29v-3.24h24.98v3.24h0ZM357.28,172.17h-21.28v-29.95h21.04v3.24h-16.77v9.71h14.68v3.24h-14.68v10.64h17v3.24-.12ZM387.92,172.17h-4.51c-.58-.46-.92-1.16-1.16-2.08-.12-.93-.23-1.85-.23-2.78v-2.78c0-1.62-.46-2.89-1.5-3.93s-2.43-1.5-4.05-1.5h-8.09v12.95h-4.39v-29.95h11.56c3.47,0,6.24.69,8.09,2.2,1.85,1.5,2.78,3.58,2.78,6.36s-.46,2.89-1.27,4.05-2.08,2.08-3.82,2.66c1.73.58,3.01,1.39,3.82,2.54.81,1.16,1.16,2.66,1.16,4.39v2.78c0,.93,0,1.73.35,2.54.23.69.58,1.39,1.16,1.85v.46l.12.23ZM400.3,172.17h-4.39v-29.95h4.39v29.95ZM434.52,159.79c0,3.7-1.27,6.71-3.7,9.13-2.43,2.43-5.55,3.58-9.48,3.58s-6.82-1.16-9.13-3.58-3.47-5.43-3.47-9.13v-5.32c0-3.7,1.16-6.71,3.47-9.13,2.31-2.43,5.43-3.58,9.13-3.58s7.05,1.16,9.48,3.58,3.7,5.43,3.7,9.13v5.32ZM466.55,172.17h-4.51c-.58-.46-.92-1.16-1.16-2.08-.12-.93-.23-1.85-.23-2.78v-2.78c0-1.62-.46-2.89-1.5-3.93s-2.43-1.5-4.05-1.5h-8.09v12.95h-4.39v-29.95h11.56c3.47,0,6.24.69,8.09,2.2,1.85,1.5,2.78,3.58,2.78,6.36s-.46,2.89-1.27,4.05-2.08,2.08-3.82,2.66c1.73.58,3.01,1.39,3.82,2.54.81,1.16,1.16,2.66,1.16,4.39v2.78c0,.93,0,1.73.35,2.54.23.69.58,1.39,1.16,1.85v.46l.12.23ZM493.03,170.32c-2.08,1.5-4.86,2.2-8.33,2.2s-6.01-.81-8.56-2.43c-2.43-1.62-3.7-3.82-3.58-6.48h0c0-.12,4.16-.12,4.16-.12,0,1.97.81,3.35,2.31,4.39,1.5,1.04,3.35,1.5,5.67,1.5s3.93-.46,5.2-1.27c1.27-.81,1.97-1.97,1.97-3.47s-.58-2.54-1.62-3.47c-1.16-.93-3.01-1.73-5.9-2.31-3.35-.81-6.01-1.85-7.98-3.35-1.85-1.5-2.89-3.35-2.89-5.55s1.04-4.28,3.12-5.9c2.08-1.62,4.74-2.31,7.98-2.31s6.36.93,8.44,2.66c2.08,1.85,3.12,3.93,3.01,6.24h0c0,.12-4.16.12-4.16.12,0-1.73-.58-3.12-1.85-4.28-1.27-1.04-3.01-1.62-5.32-1.62s-3.82.46-4.97,1.39-1.73,2.08-1.73,3.58.58,2.43,1.85,3.24c1.27.93,3.24,1.62,6.13,2.31,3.35.81,5.9,1.97,7.75,3.47,1.73,1.5,2.66,3.35,2.66,5.67s-1.04,4.39-3.12,5.78h-.23ZM499.5,146.38c-2.2,0-3.93-1.73-3.93-3.93s1.73-3.93,3.93-3.93,3.93,1.73,3.93,3.93-1.73,3.93-3.93,3.93Z" style="fill: #231f20;"/>
      <path d="M500.66,141.64c0-.46-.35-.81-.81-.81h-1.27v1.62h1.27c.46,0,.81-.35.81-.81Z" style="fill: #231f20;"/>
      <path d="M499.5,139.1c-1.85,0-3.47,1.5-3.47,3.35s1.5,3.47,3.47,3.47,3.35-1.5,3.35-3.47-1.5-3.35-3.35-3.35ZM500.54,144.76l-1.16-1.73h-.81v1.73h-.58v-4.51h1.85c.81,0,1.39.58,1.39,1.39s-.92,1.39-1.16,1.39l1.16,1.85h-.69v-.12Z" style="fill: #231f20;"/>
    </g>
  </g>
</svg>